<mxfile host="app.diagrams.net" agent="Mozilla/5.0 (Macintosh; Intel Mac OS X 10_15_7) AppleWebKit/537.36 (KHTML, like Gecko) Chrome/135.0.0.0 Safari/537.36" version="26.2.13">
  <diagram name="Trang-1" id="HcSTBCP47rE03VFnDTu5">
    <mxGraphModel dx="948" dy="644" grid="1" gridSize="10" guides="1" tooltips="1" connect="1" arrows="1" fold="1" page="1" pageScale="1" pageWidth="827" pageHeight="1169" math="0" shadow="0">
      <root>
        <mxCell id="0" />
        <mxCell id="1" parent="0" />
        <mxCell id="p9wA5WOMyRCkbdjscX1R-1" value="Bắt đầu" style="ellipse;whiteSpace=wrap;html=1;" vertex="1" parent="1">
          <mxGeometry x="350" width="90" height="60" as="geometry" />
        </mxCell>
        <mxCell id="p9wA5WOMyRCkbdjscX1R-6" value="n" style="rhombus;whiteSpace=wrap;html=1;" vertex="1" parent="1">
          <mxGeometry x="360" y="90" width="80" height="80" as="geometry" />
        </mxCell>
        <mxCell id="p9wA5WOMyRCkbdjscX1R-10" value="" style="endArrow=classic;html=1;rounded=0;entryX=0.5;entryY=0;entryDx=0;entryDy=0;" edge="1" parent="1" target="p9wA5WOMyRCkbdjscX1R-26">
          <mxGeometry width="50" height="50" relative="1" as="geometry">
            <mxPoint x="400" y="280" as="sourcePoint" />
            <mxPoint x="480" y="320" as="targetPoint" />
          </mxGeometry>
        </mxCell>
        <mxCell id="p9wA5WOMyRCkbdjscX1R-11" value="Sai" style="edgeLabel;html=1;align=center;verticalAlign=middle;resizable=0;points=[];" vertex="1" connectable="0" parent="p9wA5WOMyRCkbdjscX1R-10">
          <mxGeometry x="0.16" y="3" relative="1" as="geometry">
            <mxPoint as="offset" />
          </mxGeometry>
        </mxCell>
        <mxCell id="p9wA5WOMyRCkbdjscX1R-12" value="" style="endArrow=classic;html=1;rounded=0;exitX=0.5;exitY=1;exitDx=0;exitDy=0;entryX=0.633;entryY=0;entryDx=0;entryDy=0;entryPerimeter=0;" edge="1" parent="1" source="p9wA5WOMyRCkbdjscX1R-24">
          <mxGeometry width="50" height="50" relative="1" as="geometry">
            <mxPoint x="400" y="320" as="sourcePoint" />
            <mxPoint x="325.96000000000004" y="330" as="targetPoint" />
          </mxGeometry>
        </mxCell>
        <mxCell id="p9wA5WOMyRCkbdjscX1R-15" value="Đúng" style="edgeLabel;html=1;align=center;verticalAlign=middle;resizable=0;points=[];" vertex="1" connectable="0" parent="p9wA5WOMyRCkbdjscX1R-12">
          <mxGeometry x="0.06" y="-4" relative="1" as="geometry">
            <mxPoint y="1" as="offset" />
          </mxGeometry>
        </mxCell>
        <mxCell id="p9wA5WOMyRCkbdjscX1R-21" value="End" style="ellipse;whiteSpace=wrap;html=1;" vertex="1" parent="1">
          <mxGeometry x="345" y="440" width="110" height="70" as="geometry" />
        </mxCell>
        <mxCell id="p9wA5WOMyRCkbdjscX1R-22" value="" style="endArrow=classic;html=1;rounded=0;entryX=0.5;entryY=0;entryDx=0;entryDy=0;exitX=0.5;exitY=1;exitDx=0;exitDy=0;" edge="1" parent="1" source="p9wA5WOMyRCkbdjscX1R-27" target="p9wA5WOMyRCkbdjscX1R-21">
          <mxGeometry width="50" height="50" relative="1" as="geometry">
            <mxPoint x="400" y="540" as="sourcePoint" />
            <mxPoint x="450" y="490" as="targetPoint" />
          </mxGeometry>
        </mxCell>
        <mxCell id="p9wA5WOMyRCkbdjscX1R-23" value="" style="endArrow=classic;html=1;rounded=0;entryX=0.5;entryY=0;entryDx=0;entryDy=0;" edge="1" parent="1" target="p9wA5WOMyRCkbdjscX1R-6">
          <mxGeometry width="50" height="50" relative="1" as="geometry">
            <mxPoint x="400" y="60" as="sourcePoint" />
            <mxPoint x="450" y="10" as="targetPoint" />
          </mxGeometry>
        </mxCell>
        <mxCell id="p9wA5WOMyRCkbdjscX1R-24" value="n % 2 == 0?" style="rhombus;whiteSpace=wrap;html=1;" vertex="1" parent="1">
          <mxGeometry x="360" y="200" width="80" height="80" as="geometry" />
        </mxCell>
        <mxCell id="p9wA5WOMyRCkbdjscX1R-25" value="" style="endArrow=classic;html=1;rounded=0;entryX=0.5;entryY=0;entryDx=0;entryDy=0;" edge="1" parent="1" target="p9wA5WOMyRCkbdjscX1R-24">
          <mxGeometry width="50" height="50" relative="1" as="geometry">
            <mxPoint x="400" y="170" as="sourcePoint" />
            <mxPoint x="450" y="120" as="targetPoint" />
          </mxGeometry>
        </mxCell>
        <mxCell id="p9wA5WOMyRCkbdjscX1R-26" value="Số lẻ" style="shape=parallelogram;perimeter=parallelogramPerimeter;whiteSpace=wrap;html=1;fixedSize=1;" vertex="1" parent="1">
          <mxGeometry x="414" y="330" width="120" height="60" as="geometry" />
        </mxCell>
        <mxCell id="p9wA5WOMyRCkbdjscX1R-27" value="Số chẵn" style="shape=parallelogram;perimeter=parallelogramPerimeter;whiteSpace=wrap;html=1;fixedSize=1;" vertex="1" parent="1">
          <mxGeometry x="260" y="330" width="120" height="60" as="geometry" />
        </mxCell>
        <mxCell id="p9wA5WOMyRCkbdjscX1R-29" value="" style="endArrow=classic;html=1;rounded=0;exitX=0.5;exitY=1;exitDx=0;exitDy=0;entryX=0.5;entryY=0;entryDx=0;entryDy=0;" edge="1" parent="1" source="p9wA5WOMyRCkbdjscX1R-26" target="p9wA5WOMyRCkbdjscX1R-21">
          <mxGeometry width="50" height="50" relative="1" as="geometry">
            <mxPoint x="430" y="290" as="sourcePoint" />
            <mxPoint x="400" y="430" as="targetPoint" />
          </mxGeometry>
        </mxCell>
      </root>
    </mxGraphModel>
  </diagram>
</mxfile>
